<svg width="126" height="26" viewBox="0 0 126 26" fill="none" xmlns="http://www.w3.org/2000/svg">
<g clip-path="url(#clip0_2879_90)">
<path fill-rule="evenodd" clip-rule="evenodd" d="M25.4042 6.44363C25.584 5.85213 25.4042 5.41663 24.5429 5.41663H21.6992C20.9755 5.41663 20.6418 5.79254 20.4609 6.20746C20.4609 6.20746 19.0147 9.66979 16.9661 11.9188C16.3031 12.571 16.0019 12.7779 15.6401 12.7779C15.4592 12.7779 15.1873 12.571 15.1873 11.9784V6.44363C15.1873 5.73296 14.9879 5.41663 14.3856 5.41663H9.91358C9.46183 5.41663 9.18992 5.74596 9.18992 6.05904C9.18992 6.73179 10.2148 6.88779 10.3198 8.78146V12.896C10.3198 13.7984 10.1541 13.962 9.79225 13.962C8.82808 13.962 6.48267 10.4834 5.09058 6.50321C4.82083 5.72863 4.54783 5.41663 3.82092 5.41663H0.975C0.1625 5.41663 0 5.79254 0 6.20746C0 6.94629 0.964167 10.6166 4.49042 15.471C6.84125 18.786 10.1508 20.5833 13.1658 20.5833C14.9738 20.5833 15.197 20.1846 15.197 19.4967V16.991C15.197 16.1925 15.3682 16.0333 15.9413 16.0333C16.3638 16.0333 17.0863 16.2413 18.7742 17.8392C20.7025 19.734 21.0199 20.5833 22.1054 20.5833H24.9492C25.7617 20.5833 26.169 20.1846 25.935 19.396C25.6772 18.6116 24.7563 17.473 23.5354 16.1221C22.8724 15.353 21.8779 14.5242 21.5757 14.1093C21.1543 13.5774 21.2745 13.3401 21.5757 12.8667C21.5757 12.8667 25.0423 8.07188 25.4031 6.44363H25.4042Z" fill="white"/>
</g>
<path d="M75.6132 5.34836C74.7087 5.74919 73.7369 6.02002 72.7153 6.14244C73.7694 5.51172 74.558 4.51903 74.934 3.34961C73.9437 3.93785 72.8598 4.3519 71.7295 4.57377C70.9694 3.76221 69.9626 3.22429 68.8655 3.04354C67.7684 2.86278 66.6423 3.0493 65.662 3.57413C64.6817 4.09896 63.9022 4.93275 63.4443 5.94604C62.9865 6.95932 62.876 8.09542 63.13 9.17794C61.1233 9.07719 59.1603 8.55562 57.3682 7.64709C55.5761 6.73856 53.9952 5.46337 52.7278 3.90427C52.2945 4.65177 52.0453 5.51844 52.0453 6.44144C52.0448 7.27235 52.2495 8.09054 52.641 8.8234C53.0326 9.55627 53.599 10.1811 54.29 10.6426C53.4886 10.6171 52.7049 10.4006 52.0042 10.011V10.076C52.0041 11.2414 52.4072 12.3709 53.1451 13.2729C53.883 14.1749 54.9103 14.7939 56.0526 15.0247C55.3092 15.2259 54.5298 15.2555 53.7732 15.1114C54.0955 16.1141 54.7233 16.991 55.5687 17.6192C56.4141 18.2474 57.4348 18.5956 58.4879 18.6149C56.7002 20.0182 54.4925 20.7795 52.2197 20.7761C51.8172 20.7762 51.4149 20.7527 51.0151 20.7057C53.322 22.189 56.0074 22.9762 58.7501 22.9731C68.0342 22.9731 73.1097 15.2836 73.1097 8.61461C73.1097 8.39794 73.1042 8.17911 73.0945 7.96244C74.0817 7.2485 74.9339 6.36441 75.6111 5.35161L75.6132 5.34836Z" fill="white"/>
<g clip-path="url(#clip1_2879_90)">
<path d="M117.33 4.31708H119.704V0.183083C119.294 0.12675 117.886 0 116.246 0C112.823 0 110.479 2.15258 110.479 6.10892V9.75H106.703V14.3715H110.479V26H115.109V14.3726H118.733L119.308 9.75108H115.108V6.56717C115.109 5.23142 115.469 4.31708 117.33 4.31708Z" fill="white"/>
</g>
<defs>
<clipPath id="clip0_2879_90">
<rect width="26" height="26" fill="white"/>
</clipPath>
<clipPath id="clip1_2879_90">
<rect width="26" height="26" fill="white" transform="translate(100)"/>
</clipPath>
</defs>
</svg>
